<?xml version="1.0" encoding="utf-8"?>
<!-- Generator: Adobe Illustrator 23.0.5, SVG Export Plug-In . SVG Version: 6.00 Build 0)  -->
<svg version="1.1" id="Layer_1" xmlns="http://www.w3.org/2000/svg" xmlns:xlink="http://www.w3.org/1999/xlink" x="0px" y="0px"
	 viewBox="0 0 50 29.2" style="enable-background:new 0 0 50 29.2;" xml:space="preserve">
<style type="text/css">
	.st0{fill-rule:evenodd;clip-rule:evenodd;fill:#FF9900;}
	.st1{fill-rule:evenodd;clip-rule:evenodd;fill:#014479;}
	.st2{fill-rule:evenodd;clip-rule:evenodd;fill:#FFFFFF;}
	.st3{fill:none;}
	.st4{fill:#A7A7A7;}
	.st5{fill:#363636;}
	.st6{fill:#FFFFFF;}
	.st7{fill:#014479;}
	.st8{fill-rule:evenodd;clip-rule:evenodd;}
	.st9{fill:#FF9900;}
</style>
<g>
	<g>
		<path class="st0" d="M19.6,19c8.9-0.2,13.6-5.1,14-14.8v12.5c0,1.5-0.8,2.3-2.3,2.3L19.6,19z"/>
		<path class="st1" d="M19.6,19l-0.8,0c-1.5,0-2.3-0.8-2.3-2.3V4.2c0-1.5,0.8-2.3,2.3-2.3h12.5c1.5,0,2.3,0.8,2.3,2.3
			C33.1,13.8,28.5,18.8,19.6,19z"/>
	</g>
	<g>
		<g>
			<path class="st2" d="M25.6,10c-0.1,0.1-0.3,0.2-0.5,0.2c-0.2,0-0.3-0.1-0.5-0.2c-0.2-0.2-0.5-0.4-0.8-0.5
				c-0.3-0.1-0.5-0.2-0.9-0.2c-0.3,0-0.7,0.1-1,0.2c-0.3,0.1-0.6,0.3-0.8,0.5c-0.2,0.2-0.4,0.5-0.5,0.8c-0.1,0.3-0.2,0.6-0.2,1
				c0,0.3,0.1,0.7,0.2,1c0.1,0.3,0.3,0.6,0.5,0.8c0.2,0.2,0.5,0.4,0.8,0.5c0.3,0.1,0.6,0.2,1,0.2c0.3,0,0.6,0,0.9-0.1
				c0.3-0.1,0.5-0.3,0.7-0.5c0.1-0.1,0.3-0.1,0.5-0.1c0.2,0,0.4,0.1,0.5,0.2c0.1,0.1,0.2,0.3,0.2,0.5c0,0.2-0.1,0.4-0.2,0.5
				c-0.7,0.6-1.6,0.9-2.5,0.9c-1.1,0-2-0.4-2.8-1.1c-0.8-0.8-1.1-1.7-1.1-2.8c0-1.1,0.4-2,1.1-2.8C21,8.3,21.9,8,23,8
				c1,0,1.8,0.3,2.5,1c0.2,0.1,0.3,0.3,0.3,0.6C25.8,9.7,25.7,9.8,25.6,10z"/>
		</g>
		<g>
			<polygon class="st2" points="26.5,4.4 27.4,4.4 28.8,6.2 30.9,3.9 29.1,6.7 30.9,9 30,9 28.7,7.4 27.7,8.9 26.4,8.9 28.3,6.8 			
				"/>
		</g>
	</g>
	<g>
		<path class="st0" d="M46.3,22.1c0.8,0,1.5,0.3,2,1c0.1,0.1,0.1,0.2,0.1,0.3c0,0.1,0,0.3-0.1,0.4c-0.1,0.1-0.2,0.1-0.3,0.1
			c-0.1,0-0.2,0-0.3-0.1c-0.1-0.1-0.1-0.1-0.2-0.2c-0.3-0.3-0.7-0.5-1.2-0.5c-0.4,0-0.8,0.1-1.1,0.4c0,0.1-0.1,0.1-0.1,0.2
			c0,0.1,0,0.1,0.1,0.2l2.2,0.7c0.3,0.1,0.5,0.2,0.6,0.3h0c0.2,0.2,0.4,0.5,0.4,0.9c0,0.2-0.1,0.5-0.2,0.7c-0.1,0.2-0.3,0.4-0.5,0.5
			c-0.2,0.1-0.4,0.2-0.7,0.3c-0.3,0.1-0.5,0.1-0.8,0.1c-0.8,0-1.5-0.3-2-0.9c-0.1-0.1-0.1-0.2-0.1-0.3c0-0.1,0-0.3,0.1-0.4
			c0.1-0.1,0.2-0.1,0.3-0.1c0.1,0,0.2,0,0.3,0.1c0.1,0.1,0.1,0.1,0.2,0.2c0.3,0.3,0.7,0.5,1.2,0.5c0.4,0,0.8-0.1,1.1-0.4
			c0-0.1,0.1-0.1,0.1-0.2c0-0.1,0-0.1-0.1-0.2l-2.2-0.7c-0.3-0.1-0.5-0.2-0.6-0.3c-0.2-0.2-0.3-0.5-0.3-0.9c0-0.2,0.1-0.4,0.2-0.6
			c0.1-0.2,0.3-0.4,0.5-0.5c0.2-0.1,0.4-0.2,0.7-0.3C45.8,22.1,46,22.1,46.3,22.1z M39.3,22.2c0.1,0.1,0.2,0.2,0.2,0.3v2.3
			c0,0.2,0,0.4,0.1,0.6c0.1,0.2,0.2,0.3,0.3,0.5c0.1,0.1,0.3,0.3,0.5,0.3c0.2,0.1,0.4,0.1,0.6,0.1c0.2,0,0.4,0,0.6-0.1
			c0.2-0.1,0.3-0.2,0.5-0.3c0.1-0.1,0.3-0.3,0.3-0.5c0.1-0.2,0.1-0.4,0.1-0.6v-2.3c0-0.1,0-0.2,0.1-0.3c0.1-0.1,0.2-0.1,0.3-0.1
			c0.1,0,0.3,0,0.3,0.1c0.1,0.1,0.1,0.1,0.1,0.2v2.5c0,0.3-0.1,0.6-0.2,0.9c-0.1,0.3-0.3,0.6-0.5,0.8c-0.2,0.2-0.4,0.3-0.7,0.5
			l-0.1,0c-0.3,0.1-0.6,0.2-1,0.2c-0.3,0-0.6-0.1-0.9-0.2c-0.2-0.1-0.3-0.2-0.5-0.3c-0.1-0.1-0.2-0.2-0.3-0.2
			c-0.2-0.2-0.4-0.5-0.5-0.8c-0.1-0.3-0.2-0.6-0.2-0.9c0,0,0,0,0,0v-2.3c0-0.1,0-0.2,0.1-0.3c0.1-0.1,0.2-0.1,0.4-0.1
			C39.1,22.1,39.2,22.1,39.3,22.2z"/>
		<path class="st1" d="M36.4,20.3v1.8H37c0.1,0,0.3,0.1,0.4,0.2c0.1,0.1,0.1,0.2,0.1,0.3c0,0.1,0,0.3-0.1,0.4
			c-0.1,0.1-0.2,0.1-0.4,0.1h-0.6v2.4c0,0.6,0.3,0.9,0.9,0.9c0.1,0,0.3,0,0.3,0.1c0.1,0.1,0.1,0.2,0.1,0.3c0,0.1,0,0.3-0.1,0.4
			c-0.1,0.1-0.2,0.1-0.3,0.1c-1.3,0-1.9-0.6-1.9-1.9v-4.5l1-1.1C36.4,19.9,36.4,20.1,36.4,20.3z M27.8,23.4
			c-0.1-0.1-0.3-0.2-0.4-0.2c-0.2-0.1-0.4-0.1-0.5-0.1c-0.2,0-0.3,0-0.5,0.1c-0.2,0.1-0.3,0.1-0.5,0.2c-0.1,0.1-0.3,0.2-0.4,0.4
			c-0.1,0.1-0.2,0.3-0.2,0.5h3.2c-0.1-0.2-0.1-0.3-0.2-0.5C28.1,23.6,28,23.5,27.8,23.4z M28.7,22.8c0.3,0.3,0.4,0.5,0.6,0.9
			c0.1,0.3,0.2,0.6,0.2,1c0,0.1,0,0.3-0.1,0.4c-0.1,0.1-0.2,0.1-0.4,0.1h-3.7c0,0.2,0.1,0.3,0.2,0.5c0.1,0.1,0.2,0.3,0.4,0.4
			c0.1,0.1,0.3,0.2,0.5,0.2c0.2,0.1,0.3,0.1,0.5,0.1c0.2,0,0.4,0,0.6-0.1c0.2-0.1,0.3-0.2,0.5-0.3c0.1-0.1,0.2-0.1,0.3-0.1
			c0.1,0,0.3,0,0.3,0.1c0.1,0.1,0.1,0.2,0.1,0.4c0,0.1,0,0.3-0.1,0.3c-0.5,0.4-1.1,0.6-1.7,0.6c-0.7,0-1.3-0.3-1.9-0.8
			c-0.5-0.5-0.8-1.1-0.8-1.9c0-0.7,0.3-1.4,0.8-1.9c0.5-0.5,1.1-0.8,1.9-0.8C27.6,22.1,28.2,22.3,28.7,22.8z"/>
		<g>
			<g>
				<polygon class="st0" points="31.1,27.2 29.6,27.2 34.9,21.3 				"/>
			</g>
			<g>
				<polygon class="st0" points="34.8,27.3 33.6,27.3 29.6,22 30.7,22 				"/>
			</g>
		</g>
		<g>
			<path class="st1" d="M22.4,22.6c0.1,0.1,0.2,0.2,0.3,0.2c0.2,0.2,0.4,0.5,0.5,0.8c0.1,0.3,0.2,0.6,0.2,0.9c0,0,0,0,0,0v2.3
				c0,0.1,0,0.3-0.1,0.4c-0.1,0.1-0.2,0.1-0.4,0.1c-0.1,0-0.3,0-0.3-0.1c-0.1-0.1-0.1-0.2-0.1-0.4v-2.3c0-0.2,0-0.4-0.1-0.6
				c-0.1-0.2-0.2-0.3-0.3-0.5c-0.1-0.1-0.3-0.3-0.5-0.3c-0.2-0.1-0.4-0.1-0.6-0.1c-0.2,0-0.4,0-0.6,0.1c-0.2,0.1-0.3,0.2-0.5,0.3
				c-0.1,0.1-0.3,0.3-0.3,0.5c-0.1,0.2-0.1,0.4-0.1,0.6v2.3c0,0.1,0,0.3-0.1,0.4c-0.1,0.1-0.2,0.1-0.4,0.1c-0.1,0-0.2,0-0.3-0.1
				c-0.1-0.1-0.1-0.1-0.1-0.2v-2.5c0-0.3,0.1-0.6,0.2-0.9c0.1-0.3,0.3-0.6,0.5-0.8c0.2-0.2,0.4-0.3,0.6-0.5l0.1,0
				c0.3-0.1,0.6-0.2,1-0.2c0.3,0,0.6,0.1,0.9,0.2C22.1,22.3,22.3,22.4,22.4,22.6z"/>
		</g>
		<g>
			<path class="st1" d="M16.8,22.6c0.1,0.1,0.2,0.1,0.3,0.2c0.2,0.2,0.4,0.5,0.6,0.8c0.1,0.3,0.2,0.6,0.2,0.9c0,0,0,0,0,0v2.3
				c0,0.1,0,0.3-0.1,0.3c-0.1,0.1-0.2,0.1-0.3,0.1c-0.1,0-0.3,0-0.4-0.1c-0.1-0.1-0.1-0.2-0.1-0.3v-2.3c0-0.2,0-0.4-0.1-0.5
				c-0.1-0.2-0.2-0.4-0.3-0.5c-0.1-0.1-0.3-0.2-0.5-0.3c-0.2-0.1-0.4-0.1-0.6-0.1c-0.2,0-0.4,0-0.6,0.1c-0.2,0.1-0.3,0.2-0.5,0.3
				C14.2,23.6,14,23.8,14,24c-0.1,0.2-0.1,0.4-0.1,0.5v2.3c0,0.1,0,0.3-0.1,0.3c-0.1,0.1-0.2,0.1-0.4,0.1s-0.2,0-0.3-0.1
				c-0.1-0.1-0.1-0.1-0.1-0.2v-2.6c0-0.3,0.1-0.6,0.2-0.9c0.1-0.3,0.3-0.6,0.5-0.8c0.2-0.2,0.4-0.3,0.6-0.5l0.1,0
				c0.3-0.1,0.6-0.2,1-0.2c0.3,0,0.6,0.1,0.9,0.2C16.4,22.4,16.6,22.4,16.8,22.6z"/>
		</g>
		<g>
			<path class="st1" d="M2.7,24.1c-0.1,0.2-0.1,0.4-0.1,0.7c0,0.2,0,0.4,0.1,0.6c0.1,0.2,0.2,0.4,0.3,0.5c0.2,0.1,0.3,0.3,0.5,0.4
				c0.2,0.1,0.4,0.1,0.6,0.1c0.2,0,0.4,0,0.6-0.1C5,26.2,5.1,26.1,5.3,26c0.1-0.1,0.2-0.1,0.3-0.1c0.1,0,0.3,0,0.4,0.1
				c0.1,0.1,0.1,0.2,0.1,0.3s0,0.3-0.1,0.4c-0.5,0.4-1.1,0.6-1.7,0.6c-0.7,0-1.3-0.3-1.9-0.8c-0.5-0.5-0.8-1.1-0.8-1.9
				c0-0.7,0.3-1.4,0.8-1.9c0.5-0.5,1.1-0.8,1.9-0.8c0.7,0,1.2,0.2,1.7,0.7c0.1,0.1,0.2,0.2,0.2,0.4c0,0.1,0,0.3-0.1,0.3
				c-0.1,0.1-0.2,0.1-0.4,0.1c-0.1,0-0.2,0-0.3-0.1c-0.2-0.1-0.3-0.2-0.5-0.3c-0.2-0.1-0.4-0.1-0.6-0.1c-0.2,0-0.4,0-0.6,0.1
				c-0.2,0.1-0.4,0.2-0.5,0.4C2.9,23.7,2.8,23.9,2.7,24.1z"/>
		</g>
		<g>
			<path class="st1" d="M9.5,22.1c0.7,0,1.3,0.3,1.9,0.8c0.3,0.3,0.4,0.6,0.6,0.9c0.1,0.3,0.2,0.6,0.2,1c0,0.7-0.3,1.3-0.8,1.9
				c-0.5,0.5-1.2,0.8-1.9,0.8c-0.7,0-1.3-0.3-1.9-0.8c-0.5-0.5-0.8-1.1-0.8-1.9c0-0.7,0.3-1.4,0.8-1.9C8.2,22.3,8.8,22.1,9.5,22.1z
				 M8.3,23.5c-0.1,0.2-0.3,0.3-0.3,0.5c-0.1,0.2-0.1,0.4-0.1,0.6c0,0.2,0,0.4,0.1,0.6c0.1,0.2,0.2,0.4,0.3,0.5
				c0.2,0.1,0.3,0.3,0.5,0.3c0.2,0.1,0.4,0.1,0.6,0.1c0.2,0,0.4,0,0.6-0.1c0.2-0.1,0.4-0.2,0.5-0.4c0.1-0.1,0.3-0.3,0.4-0.5
				c0.1-0.2,0.1-0.4,0.1-0.6c0-0.2,0-0.4-0.1-0.6c-0.1-0.2-0.2-0.4-0.4-0.5c-0.2-0.2-0.3-0.3-0.5-0.4c-0.2-0.1-0.4-0.1-0.6-0.1
				c-0.2,0-0.4,0-0.6,0.1C8.7,23.3,8.5,23.4,8.3,23.5z"/>
		</g>
	</g>
</g>
</svg>
